<svg xmlns="http://www.w3.org/2000/svg" width="32" height="32" viewBox="0 0 32 32">
  <rect width="32" height="32" rx="6" fill="#e6f4f6"/>
  <!-- White fill below the pulse line -->
  <path d="M0 16 L5 16 C6 16 6.5 16.5 7.5 19 C8.5 21.5 9 24 10 24 C11 24 11.5 20 12.5 16 C13.5 12 14 4 15 4 C16 4 16.5 12 17.5 16 C18.5 20 19 27 20 27 C21 27 21.5 20 22.5 16 C23.5 12.5 24 9 25 9 C26 9 26.5 13 27.5 16 C28.5 18.5 29 16 32 16 L32 32 L0 32 Z" fill="white"/>
  <!-- The pulse line -->
  <path d="M0 16 L5 16 C6 16 6.5 16.5 7.5 19 C8.5 21.5 9 24 10 24 C11 24 11.5 20 12.5 16 C13.5 12 14 4 15 4 C16 4 16.5 12 17.5 16 C18.5 20 19 27 20 27 C21 27 21.5 20 22.5 16 C23.5 12.5 24 9 25 9 C26 9 26.5 13 27.5 16 C28.5 18.5 29 16 32 16" fill="none" stroke="#008899" stroke-width="1.8" stroke-linecap="round" stroke-linejoin="round"/>
</svg>
